<svg width="344" height="534" viewBox="0 0 344 534" fill="none" xmlns="http://www.w3.org/2000/svg">
<path d="M333.7 115.183C331.373 88.4347 328.49 61.7056 324.837 35.0928C323.977 28.8709 323.32 21.5441 318.615 16.7178C314.224 12.2112 307.01 11.1646 301.01 9.8756C287.847 7.036 274.411 5.55321 260.944 5.05894C207.088 3.10127 154.294 16.272 101.066 21.7961C79.1103 24.0736 55.5868 22.4454 34.2588 28.5801C24.3638 31.4294 15.1871 36.6531 9.72357 45.2882C3.07629 55.8035 3.3697 68.6447 4.9784 80.4198C6.64781 92.6795 9.5111 104.755 11.1603 117.024C12.9511 130.282 13.9932 143.637 14.2664 157.002C14.8229 184.06 12.1012 211.071 12.2125 238.139C12.425 292.692 18.5664 347.003 24.7078 401.169C24.9203 401.644 24.9506 402.206 24.6774 402.787C19.224 414.485 16.1382 427.006 14.8532 439.741C13.629 451.845 13.8313 464.037 14.6509 476.152C15.0859 482.529 15.6829 488.886 16.3607 495.234C16.988 501.156 17.1094 508.172 21.7231 512.708C26.3671 517.282 34.0868 519.598 40.1979 521.682C45.712 523.562 51.3779 525.045 57.0943 526.218C69.6604 528.786 82.5199 529.745 95.3491 529.939C122.545 530.346 149.822 527.894 176.948 526.324C205.368 524.677 233.799 523.039 262.219 521.391C274.613 520.674 287.24 520.529 299.533 518.649C309.317 517.156 319.819 514.307 326.77 507.135C335.693 497.919 334.773 484.884 333.457 473.283C331.97 460.161 331.211 447.155 331.515 433.955C332.132 407.323 335.542 380.729 334.075 354.068C333.346 340.859 330.877 327.824 329.896 314.643C328.955 301.996 330.422 289.92 333.245 277.583C336.28 264.325 339.073 251.368 339.548 237.751C340.024 224.028 339.356 210.256 338.83 196.543C337.778 169.397 336.078 142.271 333.72 115.193L333.7 115.183Z" fill="white"/>
<path d="M341.025 159.173C339.295 130.777 336.857 102.419 333.71 74.1301C332.132 59.9708 330.483 45.8116 328.449 31.7105C327.053 22.0578 324.068 13.161 313.91 9.25535C301.587 4.51622 287.068 3.08189 273.925 1.93829C260.317 0.765624 246.628 0.726859 232.999 1.41495C205.024 2.82991 177.322 7.22983 149.681 11.3875C121.898 15.5645 94.2564 18.8402 66.1698 20.323C47.1285 21.3212 24.4447 23.0269 10.7657 37.4866C-5.44276 54.6211 0.435586 79.1793 4.27017 99.6089C9.63251 128.17 11.0085 156.982 9.71346 185.941C8.4184 214.928 7.72028 243.77 9.03557 272.776C10.3407 301.666 12.9612 330.499 16.0066 359.263C17.4939 373.335 19.0925 387.397 20.681 401.45C20.6911 401.566 20.7214 401.663 20.7518 401.77C10.361 424.68 8.9344 449.733 10.4723 474.397C10.8669 480.774 11.4537 487.142 12.1113 493.499C12.6779 498.965 12.8499 504.945 15.1466 510.062C19.5073 519.802 32.7715 523.514 42.444 526.509C67.5357 534.281 94.4081 534.494 120.502 533.37C150.156 532.091 179.801 530.036 209.436 528.321C224.329 527.458 239.212 526.596 254.105 525.733C267.754 524.948 281.524 524.638 295.112 523.107C314.467 520.926 334.712 513.667 337.869 492.821C339.821 479.902 336.341 466.557 335.744 453.619C335.107 439.847 335.744 426.056 336.533 412.304C337.373 397.893 338.435 383.491 338.486 369.051C338.536 355.154 337.08 341.527 335.349 327.756C333.569 313.587 332.83 299.786 335.623 285.685C338.284 272.214 342.118 259.092 343.191 245.359C344.273 231.345 343.626 217.234 343.13 203.22C342.614 188.528 341.916 173.836 341.025 159.163V159.173ZM339.538 237.732C339.063 251.358 336.28 264.306 333.235 277.564C330.402 289.901 328.935 301.977 329.886 314.624C330.867 327.804 333.336 340.839 334.064 354.049C335.532 380.71 332.122 407.303 331.505 433.936C331.201 447.135 331.96 460.151 333.447 473.264C334.763 484.864 335.683 497.899 326.76 507.116C319.809 514.297 309.307 517.137 299.523 518.629C287.24 520.5 274.613 520.645 262.209 521.372C233.789 523.02 205.358 524.657 176.938 526.305C149.812 527.875 122.535 530.327 95.339 529.92C82.5098 529.726 69.6503 528.776 57.0842 526.198C51.3576 525.026 45.7019 523.543 40.1878 521.663C34.0767 519.589 26.3671 517.263 21.713 512.688C17.0993 508.153 16.9779 501.136 16.3506 495.215C15.6829 488.857 15.0758 482.5 14.6407 476.132C13.8212 464.008 13.6189 451.816 14.8431 439.721C16.1382 426.996 19.224 414.465 24.6673 402.768C24.9405 402.186 24.9101 401.624 24.6977 401.149C18.5563 346.974 12.4149 292.663 12.2024 238.119C12.1012 211.051 14.8127 184.041 14.2563 156.982C13.9831 143.618 12.941 130.263 11.1502 117.005C9.49087 104.736 6.63769 92.6601 4.96829 80.4004C3.35958 68.6156 3.06617 55.7841 9.71346 45.2689C15.177 36.6338 24.3638 31.4101 34.2487 28.5608C55.5666 22.4261 79.0901 24.0542 101.055 21.7767C154.284 16.2526 207.068 3.08189 260.934 5.03956C274.411 5.53383 287.847 7.01662 301 9.85622C307 11.1549 314.214 12.1919 318.605 16.6984C323.309 21.5248 323.967 28.8515 324.827 35.0734C328.48 61.6862 331.363 88.4153 333.69 115.164C336.037 142.242 337.747 169.358 338.8 196.514C339.336 210.227 340.004 223.999 339.518 237.722L339.538 237.732Z" fill="black"/>
<mask id="mask0_4003_19486" style="mask-type:luminance" maskUnits="userSpaceOnUse" x="4" y="4" width="336" height="526">
<path d="M333.7 115.183C331.373 88.4347 328.49 61.7056 324.837 35.0928C323.977 28.8709 323.32 21.5441 318.615 16.7178C314.224 12.2112 307.01 11.1646 301.01 9.8756C287.847 7.036 274.411 5.55321 260.944 5.05894C207.088 3.10127 154.294 16.272 101.066 21.7961C79.1103 24.0736 55.5868 22.4454 34.2588 28.5801C24.3638 31.4294 15.1871 36.6531 9.72357 45.2882C3.07629 55.8035 3.3697 68.6447 4.9784 80.4198C6.64781 92.6795 9.5111 104.755 11.1603 117.024C12.9511 130.282 13.9932 143.637 14.2664 157.002C14.8229 184.06 12.1012 211.071 12.2125 238.139C12.425 292.692 18.5664 347.003 24.7078 401.169C24.9203 401.644 24.9506 402.206 24.6774 402.787C19.224 414.485 16.1382 427.006 14.8532 439.741C13.629 451.845 13.8313 464.037 14.6509 476.152C15.0859 482.529 15.6829 488.886 16.3607 495.234C16.988 501.156 17.1094 508.172 21.7231 512.708C26.3671 517.282 34.0868 519.598 40.1979 521.682C45.712 523.562 51.3779 525.045 57.0943 526.218C69.6604 528.786 82.5199 529.745 95.3491 529.939C122.545 530.346 149.822 527.894 176.948 526.324C205.368 524.677 233.799 523.039 262.219 521.391C274.613 520.674 287.24 520.529 299.533 518.649C309.317 517.156 319.819 514.307 326.77 507.135C335.693 497.919 334.773 484.884 333.457 473.283C331.97 460.161 331.211 447.155 331.515 433.955C332.132 407.323 335.542 380.729 334.075 354.068C333.346 340.859 330.877 327.824 329.896 314.643C328.955 301.996 330.422 289.92 333.245 277.583C336.28 264.325 339.073 251.368 339.548 237.751C340.024 224.028 339.356 210.256 338.83 196.543C337.778 169.397 336.078 142.271 333.72 115.193L333.7 115.183Z" fill="white"/>
</mask>
<g mask="url(#mask0_4003_19486)">
<path d="M16.897 501.282C22.0165 505.682 29.0685 507.203 35.7967 508.57C61.799 513.851 87.943 519.153 114.492 520.248C129.516 520.868 144.561 520.141 159.576 519.405C206.157 517.137 252.739 514.869 299.321 512.601C305.26 512.31 311.877 511.719 315.772 507.416C319.232 503.588 319.394 498.045 319.374 492.986C319.313 475.066 319.242 457.137 319.181 439.217C319.131 424.079 319.07 408.903 320.628 393.842C322.409 376.514 326.324 359.243 325.222 341.857C324.291 327.174 319.809 312.87 318.898 298.187C318.109 285.288 320.092 272.398 321.498 259.547C330.23 179.69 316.591 98.727 325.485 18.8887C334.166 20.7979 338.233 30.1792 340.762 38.3588C375.597 150.964 374.758 270.45 373.645 387.891C373.321 421.414 373.007 454.937 372.683 488.46C372.542 503.142 372.228 518.494 364.943 531.403C353.885 551.009 329.906 559.944 307.597 566.273C262.29 579.133 215.253 587.691 168.024 586.479C120.795 585.268 73.2117 573.89 33.5101 549.351C22.1278 542.315 10.796 533.341 7.26499 520.81C4.14876 509.733 7.72028 498.016 12.1923 487.762C10.8062 492.637 13.0422 497.987 16.9071 501.301L16.897 501.282Z" fill="#D1D3D4"/>
</g>
</svg>
