<svg width="18" height="18" viewBox="0 0 18 18" fill="none" xmlns="http://www.w3.org/2000/svg">
<path d="M17.1249 8.99996C17.1252 10.4027 16.7624 11.7817 16.0716 13.0026C15.3809 14.2235 14.3858 15.2448 13.1833 15.967C11.9808 16.6893 10.6117 17.0879 9.20942 17.124C7.80713 17.1602 6.41936 16.8327 5.18119 16.1734L2.52103 17.0601C2.30079 17.1336 2.06444 17.1442 1.83848 17.0909C1.61251 17.0376 1.40587 16.9224 1.2417 16.7582C1.07753 16.594 0.962325 16.3874 0.909 16.1614C0.855674 15.9355 0.866333 15.6991 0.939782 15.4789L1.8265 12.8187C1.24693 11.7291 0.923218 10.5217 0.879937 9.28822C0.836656 8.05477 1.07494 6.82767 1.57671 5.70007C2.07848 4.57246 2.83054 3.57398 3.77581 2.78043C4.72108 1.98687 5.83471 1.41909 7.03218 1.12018C8.22964 0.82127 9.47947 0.799093 10.6868 1.05533C11.8941 1.31157 13.0272 1.83948 14 2.599C14.9728 3.35852 15.7598 4.32969 16.3013 5.43879C16.8428 6.54788 17.1244 7.76576 17.1249 8.99996Z" fill="black" fill-opacity="0.4"/>
</svg>
