<svg width="18" height="16" viewBox="0 0 18 16" fill="none" xmlns="http://www.w3.org/2000/svg">
<path d="M17.75 4.6562C17.7513 5.25139 17.6346 5.84094 17.4066 6.39075C17.1787 6.94056 16.8439 7.43971 16.4218 7.85933L9.44526 14.939C9.38711 14.9981 9.31779 15.045 9.24134 15.077C9.16489 15.109 9.08283 15.1255 8.99995 15.1255C8.91707 15.1255 8.83502 15.109 8.75857 15.077C8.68211 15.045 8.61279 14.9981 8.55464 14.939L1.57808 7.85933C0.727518 7.0098 0.249269 5.85719 0.248536 4.65506C0.247803 3.45292 0.724648 2.29973 1.57417 1.44917C2.42369 0.598612 3.5763 0.120362 4.77844 0.11963C5.98058 0.118897 7.13377 0.595742 7.98433 1.44526L8.99995 2.39448L10.0226 1.44214C10.6573 0.810567 11.4649 0.381205 12.3435 0.208256C13.222 0.0353083 14.1321 0.126528 14.9589 0.4704C15.7856 0.814271 16.492 1.39538 16.9887 2.14036C17.4855 2.88534 17.7504 3.76079 17.75 4.6562Z" fill="black" fill-opacity="0.4"/>
</svg>
