<svg width="659" height="245" viewBox="0 0 659 245" fill="none" xmlns="http://www.w3.org/2000/svg">
<mask id="path-1-outside-1_161_20777" maskUnits="userSpaceOnUse" x="0.5" y="0" width="659" height="245" fill="black">
<rect fill="white" x="0.5" width="659" height="245"/>
<path d="M70.5075 124.973C65.0332 123.849 59.5589 121.321 54.0846 117.389C48.6103 113.456 43.3466 108.681 38.2934 103.064C33.3806 97.4462 28.6783 91.1966 24.1866 84.315C19.8352 77.4334 16.0453 70.4817 12.8169 63.4596C9.5885 56.4376 7.0619 49.6262 5.23714 43.0255C3.41238 36.4248 2.5 30.5263 2.5 25.33C2.5 24.6278 2.5 23.7852 2.5 22.8021C2.64037 21.819 2.78073 20.9062 2.9211 20.0635C3.20183 19.0804 3.69311 18.308 4.39495 17.7463C5.09678 17.044 6.00916 16.6929 7.13209 16.6929C10.6412 16.6929 13.6591 17.9569 16.1857 20.4848C18.7123 22.8723 21.0284 26.1025 23.1338 30.1752C25.2393 34.248 27.2045 38.8825 29.0292 44.0788C30.854 49.2751 32.6788 54.5417 34.5035 59.8784C36.4686 65.2151 38.504 70.4817 40.6095 75.6779C42.7149 80.8742 45.031 85.5088 47.5576 89.5816C50.2245 93.6543 53.2424 96.9547 56.6112 99.4826C59.98 101.87 63.8401 103.064 68.1914 103.064C68.4722 103.064 68.8231 102.994 69.2442 102.853C69.8056 102.713 70.2267 102.643 70.5075 102.643C74.4377 99.1315 77.9469 94.497 81.035 88.7389C84.2634 82.8404 87.2111 76.5206 89.878 69.7794C92.545 63.0383 95.1418 56.0865 97.6684 48.924C100.195 41.7616 102.792 35.0906 105.459 28.9113C108.266 22.7319 111.144 17.3249 114.091 12.6904C117.179 8.05586 120.688 4.82573 124.619 3L133.672 12.2691C134.795 13.3926 134.936 15.7099 134.093 19.2209C133.392 22.5914 132.058 26.8749 130.093 32.0712C128.268 37.127 125.952 42.8149 123.145 49.1347C120.338 55.3141 117.39 61.7743 114.302 68.5155C111.214 75.2566 108.126 81.9978 105.038 88.7389C101.95 95.3396 99.1422 101.589 96.6156 107.488C94.2294 113.386 92.2643 118.653 90.7202 123.287C89.1762 127.922 88.4042 131.573 88.4042 134.242C88.4042 142.668 89.5973 150.814 91.9835 158.678C94.5101 166.543 97.1771 174.408 99.9844 182.272C102.792 189.996 105.389 197.791 107.775 205.656C110.161 213.38 111.354 221.315 111.354 229.46C111.354 230.584 111.354 232.058 111.354 233.884C111.354 235.569 111.073 237.184 110.512 238.729C110.091 240.274 109.178 241.468 107.775 242.311C106.511 243.153 104.616 243.223 102.09 242.521C96.8963 234.937 92.3344 226.371 88.4042 216.821C84.4739 207.13 81.1051 197.089 78.2978 186.696C75.4905 176.304 73.385 165.841 71.9813 155.308C70.718 144.634 70.2267 134.523 70.5075 124.973Z"/>
<path d="M133.672 183.958C133.672 176.795 134.585 169.562 136.409 162.26C138.375 154.816 141.042 147.724 144.41 140.983C147.919 134.242 152.13 127.992 157.043 122.234C161.956 116.335 167.36 111.28 173.256 107.066C179.291 102.713 185.818 99.3422 192.837 96.9547C199.855 94.4268 207.224 93.1628 214.944 93.1628C222.665 93.1628 229.332 94.7076 234.947 97.7973C240.702 100.747 245.474 104.749 249.264 109.805C253.054 114.861 255.861 120.689 257.686 127.29C259.511 133.75 260.423 140.351 260.423 147.092C260.423 158.889 258.669 170.545 255.159 182.062C251.65 193.437 246.457 203.689 239.579 212.818C232.701 221.806 224.138 229.109 213.892 234.727C203.785 240.204 192.135 242.943 178.94 242.943C171.08 242.943 164.272 241.187 158.517 237.676C152.902 234.025 148.2 229.39 144.41 223.772C140.761 218.014 138.024 211.695 136.199 204.813C134.515 197.791 133.672 190.839 133.672 183.958ZM151.569 188.592C151.569 192.384 152.201 196.387 153.464 200.6C154.727 204.813 156.482 208.675 158.728 212.186C160.974 215.697 163.781 218.646 167.15 221.034C170.659 223.421 174.589 224.615 178.94 224.615C188.345 224.615 196.907 222.508 204.627 218.295C212.348 213.942 219.015 208.394 224.63 201.653C230.244 194.771 234.596 187.117 237.684 178.691C240.772 170.265 242.316 161.908 242.316 153.622C242.316 148.847 242.175 143.932 241.895 138.876C241.614 133.82 240.702 129.256 239.158 125.183C237.614 120.97 235.157 117.599 231.788 115.072C228.56 112.403 223.858 111.069 217.682 111.069C215.716 111.069 213.049 111.139 209.681 111.28C206.452 111.42 203.224 111.841 199.995 112.544C196.767 113.105 193.889 114.018 191.363 115.282C188.977 116.546 187.784 118.302 187.784 120.549C187.784 120.83 187.994 121.462 188.415 122.445C188.977 123.287 189.538 124.2 190.1 125.183C190.661 126.166 191.152 127.149 191.573 128.132C191.995 128.975 192.205 129.537 192.205 129.818C192.205 130.099 191.644 130.871 190.521 132.135C189.398 133.259 188.485 133.961 187.784 134.242C180.765 136.067 174.87 138.385 170.097 141.193C165.465 143.862 161.746 147.373 158.938 151.726C156.271 156.08 154.376 161.276 153.253 167.315C152.13 173.354 151.569 180.447 151.569 188.592Z"/>
<path d="M278.109 98.008C280.355 99.6933 282.18 101.8 283.584 104.328C284.987 106.715 286.11 109.173 286.952 111.701C287.093 117.038 287.163 123.428 287.163 130.871C287.163 138.314 287.444 146.039 288.005 154.044C288.567 162.049 289.619 170.054 291.163 178.059C292.707 185.924 295.094 193.016 298.322 199.336C301.691 205.656 306.112 210.782 311.587 214.714C317.201 218.506 324.22 220.402 332.642 220.402C340.362 220.402 346.959 218.576 352.433 214.925C358.048 211.273 362.68 206.639 366.329 201.021C370.119 195.403 372.857 189.154 374.541 182.272C376.366 175.25 377.278 168.439 377.278 161.838C377.278 149.058 376.646 136.067 375.383 122.866C374.12 109.524 371.804 96.6738 368.435 84.315C369.418 81.7871 370.681 80.3827 372.225 80.1018C373.769 79.6805 375.453 79.4698 377.278 79.4698C380.928 79.4698 383.805 80.9445 385.911 83.8937C388.016 86.843 389.56 90.6349 390.543 95.2694C391.666 99.7635 392.297 104.749 392.438 110.226C392.718 115.563 392.718 120.689 392.438 125.605C392.297 130.38 392.017 134.663 391.595 138.455C391.315 142.106 391.174 144.424 391.174 145.407C391.174 152.71 390.964 160.153 390.543 167.737C390.262 175.18 389.42 182.342 388.016 189.224C386.753 196.106 384.788 202.566 382.121 208.605C379.594 214.503 376.155 219.7 371.804 224.194C367.452 228.547 362.048 231.988 355.591 234.516C349.135 237.044 341.414 238.308 332.431 238.308C321.061 238.308 311.727 236.131 304.428 231.778C297.129 227.424 291.233 221.666 286.742 214.503C282.39 207.2 279.092 198.914 276.846 189.645C274.74 180.376 273.196 170.897 272.214 161.206C271.372 151.516 270.74 141.966 270.319 132.556C270.038 123.147 269.617 114.65 269.056 107.066L278.109 98.008Z"/>
<path d="M399.386 93.7948C399.386 92.6712 399.456 90.8455 399.596 88.3176C399.596 85.6492 399.596 82.9106 399.596 80.1018C399.596 77.1526 399.666 74.414 399.807 71.8861C399.807 69.2177 399.807 67.392 399.807 66.4089C401.351 63.4596 403.737 61.353 406.966 60.0891C410.334 58.6846 413.914 57.7718 417.704 57.3505C421.634 56.7887 425.424 56.578 429.073 56.7185C432.863 56.8589 435.951 56.9291 438.337 56.9291C441.425 56.9291 445.005 57.0696 449.075 57.3505C453.286 57.6313 457.427 58.1931 461.498 59.0358C465.709 59.738 469.85 60.8615 473.92 62.4063C477.991 63.8107 481.57 65.7067 484.658 68.0942C487.887 70.3412 490.413 73.15 492.238 76.5206C494.203 79.7507 495.186 83.6128 495.186 88.1069C495.186 93.4437 493.922 98.2889 491.396 102.643C488.869 106.856 485.711 110.858 481.921 114.65C478.272 118.302 474.201 121.742 469.709 124.973C465.358 128.203 461.287 131.363 457.497 134.452C453.848 137.542 450.76 140.702 448.233 143.932C445.707 147.162 444.443 150.673 444.443 154.465C444.443 154.746 444.513 155.167 444.654 155.729C444.935 156.15 445.075 156.431 445.075 156.572C461.638 161.487 477.71 167.456 493.291 174.478C509.012 181.5 524.452 189.084 539.612 197.229C540.033 197.51 540.454 198.072 540.875 198.914C541.436 199.617 541.928 200.53 542.349 201.653C542.77 202.636 543.191 203.549 543.612 204.392C544.033 205.234 544.244 205.936 544.244 206.498C544.244 207.762 543.893 208.745 543.191 209.448C542.489 210.009 541.647 210.501 540.664 210.922C539.682 211.203 538.699 211.343 537.717 211.343C536.734 211.343 535.892 211.343 535.19 211.343C527.61 211.343 520.031 209.728 512.451 206.498C505.011 203.128 497.502 199.406 489.922 195.333C482.342 191.26 474.622 187.539 466.762 184.168C459.041 180.798 450.97 179.112 442.548 179.112H435.811C438.057 184.309 440.022 188.943 441.706 193.016C443.531 197.089 445.005 201.021 446.128 204.813C447.391 208.605 448.303 212.467 448.865 216.399C449.567 220.191 449.918 224.334 449.918 228.828C449.918 229.811 449.918 231.005 449.918 232.41C449.918 233.673 449.847 235.008 449.707 236.412C449.567 237.816 449.146 239.08 448.444 240.204C447.742 241.327 446.619 242.1 445.075 242.521C439.32 239.151 434.126 233.954 429.494 226.932C425.003 219.77 421.072 211.624 417.704 202.496C414.335 193.367 411.457 183.677 409.071 173.425C406.825 163.172 404.93 153.131 403.386 143.3C401.983 133.329 400.93 124.06 400.228 115.493C399.666 106.786 399.386 99.5528 399.386 93.7948ZM417.493 107.066C417.493 108.892 417.353 111.28 417.072 114.229C416.932 117.038 416.932 119.987 417.072 123.077C417.212 126.026 417.633 128.905 418.335 131.714C419.177 134.382 420.511 136.699 422.336 138.665C422.616 138.806 422.897 138.876 423.178 138.876C423.318 139.017 423.669 139.087 424.231 139.087C426.757 139.087 429.775 138.314 433.284 136.77C436.934 135.225 440.724 133.188 444.654 130.66C448.584 128.132 452.444 125.253 456.234 122.023C460.164 118.653 463.673 115.212 466.762 111.701C469.85 108.19 472.306 104.679 474.131 101.168C476.096 97.5164 477.078 94.2161 477.078 91.2668C477.078 88.458 476.026 86.0705 473.92 84.1044C471.815 81.9978 469.288 80.3125 466.34 79.0485C463.393 77.7846 460.305 76.8717 457.076 76.3099C453.988 75.7482 451.462 75.4673 449.497 75.4673C447.11 75.4673 444.303 75.4673 441.075 75.4673C437.846 75.3268 434.618 75.5375 431.389 76.0993C428.301 76.5206 425.494 77.3632 422.967 78.6272C420.441 79.8912 418.686 81.7871 417.704 84.315C417.704 85.1577 417.704 86.6323 417.704 88.7389C417.704 90.8455 417.704 93.1628 417.704 95.6907C417.704 98.0782 417.633 100.325 417.493 102.432C417.493 104.538 417.493 106.083 417.493 107.066Z"/>
<path d="M584.459 233.463C585.161 230.092 586.915 227.354 589.722 225.247C592.67 223 595.969 220.964 599.618 219.138C603.408 217.312 607.338 215.627 611.409 214.082C615.48 212.397 619.199 210.641 622.568 208.816C626.077 206.99 628.955 204.883 631.201 202.496C633.447 199.968 634.569 196.948 634.569 193.437C634.569 188.943 633.376 185.222 630.99 182.272C628.744 179.323 625.656 176.795 621.726 174.688C617.936 172.582 613.585 170.826 608.672 169.422C603.759 168.018 598.706 166.613 593.512 165.209C588.459 163.664 583.476 162.049 578.563 160.364C573.651 158.538 569.229 156.291 565.299 153.622C561.509 150.954 558.421 147.724 556.035 143.932C553.789 140.14 552.666 135.435 552.666 129.818C552.666 125.183 553.578 120.83 555.403 116.757C557.368 112.544 559.895 108.611 562.983 104.96C566.211 101.168 569.861 97.7271 573.931 94.6374C578.142 91.5477 582.494 88.9496 586.985 86.843C591.617 84.7364 596.25 83.1213 600.882 81.9978C605.514 80.7338 609.795 80.1018 613.725 80.1018H616.041C617.304 80.5231 618.989 81.2253 621.094 82.2084C623.2 83.1915 625.235 84.1746 627.2 85.1577C629.165 86.0003 630.85 86.843 632.253 87.6856C633.657 88.3878 634.359 88.8091 634.359 88.9496V93.7948C631.692 94.0757 628.253 94.6374 624.042 95.48C619.831 96.1823 615.409 97.1653 610.777 98.4293C606.145 99.6933 601.443 101.308 596.671 103.275C591.898 105.1 587.617 107.277 583.827 109.805C580.037 112.333 576.949 115.282 574.563 118.653C572.177 121.883 570.984 125.605 570.984 129.818C570.984 135.857 573.089 140.632 577.3 144.143C581.511 147.513 586.775 150.322 593.091 152.569C599.408 154.816 606.286 156.853 613.725 158.678C621.305 160.364 628.253 162.47 634.569 164.998C640.886 167.386 646.15 170.616 650.361 174.688C654.572 178.621 656.677 183.958 656.677 190.699C656.677 194.35 655.554 198.212 653.308 202.285C651.203 206.217 648.325 210.15 644.676 214.082C641.167 217.874 637.166 221.525 632.675 225.036C628.183 228.547 623.551 231.637 618.778 234.305C614.146 236.833 609.584 238.94 605.093 240.625C600.601 242.17 596.6 242.943 593.091 242.943C591.968 242.943 590.775 242.802 589.512 242.521C588.249 242.24 587.126 241.819 586.143 241.257C585.301 240.555 584.599 239.572 584.038 238.308C583.617 237.044 583.757 235.429 584.459 233.463Z"/>
</mask>
<path d="M70.5075 124.973C65.0332 123.849 59.5589 121.321 54.0846 117.389C48.6103 113.456 43.3466 108.681 38.2934 103.064C33.3806 97.4462 28.6783 91.1966 24.1866 84.315C19.8352 77.4334 16.0453 70.4817 12.8169 63.4596C9.5885 56.4376 7.0619 49.6262 5.23714 43.0255C3.41238 36.4248 2.5 30.5263 2.5 25.33C2.5 24.6278 2.5 23.7852 2.5 22.8021C2.64037 21.819 2.78073 20.9062 2.9211 20.0635C3.20183 19.0804 3.69311 18.308 4.39495 17.7463C5.09678 17.044 6.00916 16.6929 7.13209 16.6929C10.6412 16.6929 13.6591 17.9569 16.1857 20.4848C18.7123 22.8723 21.0284 26.1025 23.1338 30.1752C25.2393 34.248 27.2045 38.8825 29.0292 44.0788C30.854 49.2751 32.6788 54.5417 34.5035 59.8784C36.4686 65.2151 38.504 70.4817 40.6095 75.6779C42.7149 80.8742 45.031 85.5088 47.5576 89.5816C50.2245 93.6543 53.2424 96.9547 56.6112 99.4826C59.98 101.87 63.8401 103.064 68.1914 103.064C68.4722 103.064 68.8231 102.994 69.2442 102.853C69.8056 102.713 70.2267 102.643 70.5075 102.643C74.4377 99.1315 77.9469 94.497 81.035 88.7389C84.2634 82.8404 87.2111 76.5206 89.878 69.7794C92.545 63.0383 95.1418 56.0865 97.6684 48.924C100.195 41.7616 102.792 35.0906 105.459 28.9113C108.266 22.7319 111.144 17.3249 114.091 12.6904C117.179 8.05586 120.688 4.82573 124.619 3L133.672 12.2691C134.795 13.3926 134.936 15.7099 134.093 19.2209C133.392 22.5914 132.058 26.8749 130.093 32.0712C128.268 37.127 125.952 42.8149 123.145 49.1347C120.338 55.3141 117.39 61.7743 114.302 68.5155C111.214 75.2566 108.126 81.9978 105.038 88.7389C101.95 95.3396 99.1422 101.589 96.6156 107.488C94.2294 113.386 92.2643 118.653 90.7202 123.287C89.1762 127.922 88.4042 131.573 88.4042 134.242C88.4042 142.668 89.5973 150.814 91.9835 158.678C94.5101 166.543 97.1771 174.408 99.9844 182.272C102.792 189.996 105.389 197.791 107.775 205.656C110.161 213.38 111.354 221.315 111.354 229.46C111.354 230.584 111.354 232.058 111.354 233.884C111.354 235.569 111.073 237.184 110.512 238.729C110.091 240.274 109.178 241.468 107.775 242.311C106.511 243.153 104.616 243.223 102.09 242.521C96.8963 234.937 92.3344 226.371 88.4042 216.821C84.4739 207.13 81.1051 197.089 78.2978 186.696C75.4905 176.304 73.385 165.841 71.9813 155.308C70.718 144.634 70.2267 134.523 70.5075 124.973Z" fill="white"/>
<path d="M133.672 183.958C133.672 176.795 134.585 169.562 136.409 162.26C138.375 154.816 141.042 147.724 144.41 140.983C147.919 134.242 152.13 127.992 157.043 122.234C161.956 116.335 167.36 111.28 173.256 107.066C179.291 102.713 185.818 99.3422 192.837 96.9547C199.855 94.4268 207.224 93.1628 214.944 93.1628C222.665 93.1628 229.332 94.7076 234.947 97.7973C240.702 100.747 245.474 104.749 249.264 109.805C253.054 114.861 255.861 120.689 257.686 127.29C259.511 133.75 260.423 140.351 260.423 147.092C260.423 158.889 258.669 170.545 255.159 182.062C251.65 193.437 246.457 203.689 239.579 212.818C232.701 221.806 224.138 229.109 213.892 234.727C203.785 240.204 192.135 242.943 178.94 242.943C171.08 242.943 164.272 241.187 158.517 237.676C152.902 234.025 148.2 229.39 144.41 223.772C140.761 218.014 138.024 211.695 136.199 204.813C134.515 197.791 133.672 190.839 133.672 183.958ZM151.569 188.592C151.569 192.384 152.201 196.387 153.464 200.6C154.727 204.813 156.482 208.675 158.728 212.186C160.974 215.697 163.781 218.646 167.15 221.034C170.659 223.421 174.589 224.615 178.94 224.615C188.345 224.615 196.907 222.508 204.627 218.295C212.348 213.942 219.015 208.394 224.63 201.653C230.244 194.771 234.596 187.117 237.684 178.691C240.772 170.265 242.316 161.908 242.316 153.622C242.316 148.847 242.175 143.932 241.895 138.876C241.614 133.82 240.702 129.256 239.158 125.183C237.614 120.97 235.157 117.599 231.788 115.072C228.56 112.403 223.858 111.069 217.682 111.069C215.716 111.069 213.049 111.139 209.681 111.28C206.452 111.42 203.224 111.841 199.995 112.544C196.767 113.105 193.889 114.018 191.363 115.282C188.977 116.546 187.784 118.302 187.784 120.549C187.784 120.83 187.994 121.462 188.415 122.445C188.977 123.287 189.538 124.2 190.1 125.183C190.661 126.166 191.152 127.149 191.573 128.132C191.995 128.975 192.205 129.537 192.205 129.818C192.205 130.099 191.644 130.871 190.521 132.135C189.398 133.259 188.485 133.961 187.784 134.242C180.765 136.067 174.87 138.385 170.097 141.193C165.465 143.862 161.746 147.373 158.938 151.726C156.271 156.08 154.376 161.276 153.253 167.315C152.13 173.354 151.569 180.447 151.569 188.592Z" fill="white"/>
<path d="M278.109 98.008C280.355 99.6933 282.18 101.8 283.584 104.328C284.987 106.715 286.11 109.173 286.952 111.701C287.093 117.038 287.163 123.428 287.163 130.871C287.163 138.314 287.444 146.039 288.005 154.044C288.567 162.049 289.619 170.054 291.163 178.059C292.707 185.924 295.094 193.016 298.322 199.336C301.691 205.656 306.112 210.782 311.587 214.714C317.201 218.506 324.22 220.402 332.642 220.402C340.362 220.402 346.959 218.576 352.433 214.925C358.048 211.273 362.68 206.639 366.329 201.021C370.119 195.403 372.857 189.154 374.541 182.272C376.366 175.25 377.278 168.439 377.278 161.838C377.278 149.058 376.646 136.067 375.383 122.866C374.12 109.524 371.804 96.6738 368.435 84.315C369.418 81.7871 370.681 80.3827 372.225 80.1018C373.769 79.6805 375.453 79.4698 377.278 79.4698C380.928 79.4698 383.805 80.9445 385.911 83.8937C388.016 86.843 389.56 90.6349 390.543 95.2694C391.666 99.7635 392.297 104.749 392.438 110.226C392.718 115.563 392.718 120.689 392.438 125.605C392.297 130.38 392.017 134.663 391.595 138.455C391.315 142.106 391.174 144.424 391.174 145.407C391.174 152.71 390.964 160.153 390.543 167.737C390.262 175.18 389.42 182.342 388.016 189.224C386.753 196.106 384.788 202.566 382.121 208.605C379.594 214.503 376.155 219.7 371.804 224.194C367.452 228.547 362.048 231.988 355.591 234.516C349.135 237.044 341.414 238.308 332.431 238.308C321.061 238.308 311.727 236.131 304.428 231.778C297.129 227.424 291.233 221.666 286.742 214.503C282.39 207.2 279.092 198.914 276.846 189.645C274.74 180.376 273.196 170.897 272.214 161.206C271.372 151.516 270.74 141.966 270.319 132.556C270.038 123.147 269.617 114.65 269.056 107.066L278.109 98.008Z" fill="white"/>
<path d="M399.386 93.7948C399.386 92.6712 399.456 90.8455 399.596 88.3176C399.596 85.6492 399.596 82.9106 399.596 80.1018C399.596 77.1526 399.666 74.414 399.807 71.8861C399.807 69.2177 399.807 67.392 399.807 66.4089C401.351 63.4596 403.737 61.353 406.966 60.0891C410.334 58.6846 413.914 57.7718 417.704 57.3505C421.634 56.7887 425.424 56.578 429.073 56.7185C432.863 56.8589 435.951 56.9291 438.337 56.9291C441.425 56.9291 445.005 57.0696 449.075 57.3505C453.286 57.6313 457.427 58.1931 461.498 59.0358C465.709 59.738 469.85 60.8615 473.92 62.4063C477.991 63.8107 481.57 65.7067 484.658 68.0942C487.887 70.3412 490.413 73.15 492.238 76.5206C494.203 79.7507 495.186 83.6128 495.186 88.1069C495.186 93.4437 493.922 98.2889 491.396 102.643C488.869 106.856 485.711 110.858 481.921 114.65C478.272 118.302 474.201 121.742 469.709 124.973C465.358 128.203 461.287 131.363 457.497 134.452C453.848 137.542 450.76 140.702 448.233 143.932C445.707 147.162 444.443 150.673 444.443 154.465C444.443 154.746 444.513 155.167 444.654 155.729C444.935 156.15 445.075 156.431 445.075 156.572C461.638 161.487 477.71 167.456 493.291 174.478C509.012 181.5 524.452 189.084 539.612 197.229C540.033 197.51 540.454 198.072 540.875 198.914C541.436 199.617 541.928 200.53 542.349 201.653C542.77 202.636 543.191 203.549 543.612 204.392C544.033 205.234 544.244 205.936 544.244 206.498C544.244 207.762 543.893 208.745 543.191 209.448C542.489 210.009 541.647 210.501 540.664 210.922C539.682 211.203 538.699 211.343 537.717 211.343C536.734 211.343 535.892 211.343 535.19 211.343C527.61 211.343 520.031 209.728 512.451 206.498C505.011 203.128 497.502 199.406 489.922 195.333C482.342 191.26 474.622 187.539 466.762 184.168C459.041 180.798 450.97 179.112 442.548 179.112H435.811C438.057 184.309 440.022 188.943 441.706 193.016C443.531 197.089 445.005 201.021 446.128 204.813C447.391 208.605 448.303 212.467 448.865 216.399C449.567 220.191 449.918 224.334 449.918 228.828C449.918 229.811 449.918 231.005 449.918 232.41C449.918 233.673 449.847 235.008 449.707 236.412C449.567 237.816 449.146 239.08 448.444 240.204C447.742 241.327 446.619 242.1 445.075 242.521C439.32 239.151 434.126 233.954 429.494 226.932C425.003 219.77 421.072 211.624 417.704 202.496C414.335 193.367 411.457 183.677 409.071 173.425C406.825 163.172 404.93 153.131 403.386 143.3C401.983 133.329 400.93 124.06 400.228 115.493C399.666 106.786 399.386 99.5528 399.386 93.7948ZM417.493 107.066C417.493 108.892 417.353 111.28 417.072 114.229C416.932 117.038 416.932 119.987 417.072 123.077C417.212 126.026 417.633 128.905 418.335 131.714C419.177 134.382 420.511 136.699 422.336 138.665C422.616 138.806 422.897 138.876 423.178 138.876C423.318 139.017 423.669 139.087 424.231 139.087C426.757 139.087 429.775 138.314 433.284 136.77C436.934 135.225 440.724 133.188 444.654 130.66C448.584 128.132 452.444 125.253 456.234 122.023C460.164 118.653 463.673 115.212 466.762 111.701C469.85 108.19 472.306 104.679 474.131 101.168C476.096 97.5164 477.078 94.2161 477.078 91.2668C477.078 88.458 476.026 86.0705 473.92 84.1044C471.815 81.9978 469.288 80.3125 466.34 79.0485C463.393 77.7846 460.305 76.8717 457.076 76.3099C453.988 75.7482 451.462 75.4673 449.497 75.4673C447.11 75.4673 444.303 75.4673 441.075 75.4673C437.846 75.3268 434.618 75.5375 431.389 76.0993C428.301 76.5206 425.494 77.3632 422.967 78.6272C420.441 79.8912 418.686 81.7871 417.704 84.315C417.704 85.1577 417.704 86.6323 417.704 88.7389C417.704 90.8455 417.704 93.1628 417.704 95.6907C417.704 98.0782 417.633 100.325 417.493 102.432C417.493 104.538 417.493 106.083 417.493 107.066Z" fill="white"/>
<path d="M584.459 233.463C585.161 230.092 586.915 227.354 589.722 225.247C592.67 223 595.969 220.964 599.618 219.138C603.408 217.312 607.338 215.627 611.409 214.082C615.48 212.397 619.199 210.641 622.568 208.816C626.077 206.99 628.955 204.883 631.201 202.496C633.447 199.968 634.569 196.948 634.569 193.437C634.569 188.943 633.376 185.222 630.99 182.272C628.744 179.323 625.656 176.795 621.726 174.688C617.936 172.582 613.585 170.826 608.672 169.422C603.759 168.018 598.706 166.613 593.512 165.209C588.459 163.664 583.476 162.049 578.563 160.364C573.651 158.538 569.229 156.291 565.299 153.622C561.509 150.954 558.421 147.724 556.035 143.932C553.789 140.14 552.666 135.435 552.666 129.818C552.666 125.183 553.578 120.83 555.403 116.757C557.368 112.544 559.895 108.611 562.983 104.96C566.211 101.168 569.861 97.7271 573.931 94.6374C578.142 91.5477 582.494 88.9496 586.985 86.843C591.617 84.7364 596.25 83.1213 600.882 81.9978C605.514 80.7338 609.795 80.1018 613.725 80.1018H616.041C617.304 80.5231 618.989 81.2253 621.094 82.2084C623.2 83.1915 625.235 84.1746 627.2 85.1577C629.165 86.0003 630.85 86.843 632.253 87.6856C633.657 88.3878 634.359 88.8091 634.359 88.9496V93.7948C631.692 94.0757 628.253 94.6374 624.042 95.48C619.831 96.1823 615.409 97.1653 610.777 98.4293C606.145 99.6933 601.443 101.308 596.671 103.275C591.898 105.1 587.617 107.277 583.827 109.805C580.037 112.333 576.949 115.282 574.563 118.653C572.177 121.883 570.984 125.605 570.984 129.818C570.984 135.857 573.089 140.632 577.3 144.143C581.511 147.513 586.775 150.322 593.091 152.569C599.408 154.816 606.286 156.853 613.725 158.678C621.305 160.364 628.253 162.47 634.569 164.998C640.886 167.386 646.15 170.616 650.361 174.688C654.572 178.621 656.677 183.958 656.677 190.699C656.677 194.35 655.554 198.212 653.308 202.285C651.203 206.217 648.325 210.15 644.676 214.082C641.167 217.874 637.166 221.525 632.675 225.036C628.183 228.547 623.551 231.637 618.778 234.305C614.146 236.833 609.584 238.94 605.093 240.625C600.601 242.17 596.6 242.943 593.091 242.943C591.968 242.943 590.775 242.802 589.512 242.521C588.249 242.24 587.126 241.819 586.143 241.257C585.301 240.555 584.599 239.572 584.038 238.308C583.617 237.044 583.757 235.429 584.459 233.463Z" fill="white"/>
<path d="M70.5075 124.973C65.0332 123.849 59.5589 121.321 54.0846 117.389C48.6103 113.456 43.3466 108.681 38.2934 103.064C33.3806 97.4462 28.6783 91.1966 24.1866 84.315C19.8352 77.4334 16.0453 70.4817 12.8169 63.4596C9.5885 56.4376 7.0619 49.6262 5.23714 43.0255C3.41238 36.4248 2.5 30.5263 2.5 25.33C2.5 24.6278 2.5 23.7852 2.5 22.8021C2.64037 21.819 2.78073 20.9062 2.9211 20.0635C3.20183 19.0804 3.69311 18.308 4.39495 17.7463C5.09678 17.044 6.00916 16.6929 7.13209 16.6929C10.6412 16.6929 13.6591 17.9569 16.1857 20.4848C18.7123 22.8723 21.0284 26.1025 23.1338 30.1752C25.2393 34.248 27.2045 38.8825 29.0292 44.0788C30.854 49.2751 32.6788 54.5417 34.5035 59.8784C36.4686 65.2151 38.504 70.4817 40.6095 75.6779C42.7149 80.8742 45.031 85.5088 47.5576 89.5816C50.2245 93.6543 53.2424 96.9547 56.6112 99.4826C59.98 101.87 63.8401 103.064 68.1914 103.064C68.4722 103.064 68.8231 102.994 69.2442 102.853C69.8056 102.713 70.2267 102.643 70.5075 102.643C74.4377 99.1315 77.9469 94.497 81.035 88.7389C84.2634 82.8404 87.2111 76.5206 89.878 69.7794C92.545 63.0383 95.1418 56.0865 97.6684 48.924C100.195 41.7616 102.792 35.0906 105.459 28.9113C108.266 22.7319 111.144 17.3249 114.091 12.6904C117.179 8.05586 120.688 4.82573 124.619 3L133.672 12.2691C134.795 13.3926 134.936 15.7099 134.093 19.2209C133.392 22.5914 132.058 26.8749 130.093 32.0712C128.268 37.127 125.952 42.8149 123.145 49.1347C120.338 55.3141 117.39 61.7743 114.302 68.5155C111.214 75.2566 108.126 81.9978 105.038 88.7389C101.95 95.3396 99.1422 101.589 96.6156 107.488C94.2294 113.386 92.2643 118.653 90.7202 123.287C89.1762 127.922 88.4042 131.573 88.4042 134.242C88.4042 142.668 89.5973 150.814 91.9835 158.678C94.5101 166.543 97.1771 174.408 99.9844 182.272C102.792 189.996 105.389 197.791 107.775 205.656C110.161 213.38 111.354 221.315 111.354 229.46C111.354 230.584 111.354 232.058 111.354 233.884C111.354 235.569 111.073 237.184 110.512 238.729C110.091 240.274 109.178 241.468 107.775 242.311C106.511 243.153 104.616 243.223 102.09 242.521C96.8963 234.937 92.3344 226.371 88.4042 216.821C84.4739 207.13 81.1051 197.089 78.2978 186.696C75.4905 176.304 73.385 165.841 71.9813 155.308C70.718 144.634 70.2267 134.523 70.5075 124.973Z" stroke="black" stroke-opacity="0.2" stroke-width="4" mask="url(#path-1-outside-1_161_20777)"/>
<path d="M133.672 183.958C133.672 176.795 134.585 169.562 136.409 162.26C138.375 154.816 141.042 147.724 144.41 140.983C147.919 134.242 152.13 127.992 157.043 122.234C161.956 116.335 167.36 111.28 173.256 107.066C179.291 102.713 185.818 99.3422 192.837 96.9547C199.855 94.4268 207.224 93.1628 214.944 93.1628C222.665 93.1628 229.332 94.7076 234.947 97.7973C240.702 100.747 245.474 104.749 249.264 109.805C253.054 114.861 255.861 120.689 257.686 127.29C259.511 133.75 260.423 140.351 260.423 147.092C260.423 158.889 258.669 170.545 255.159 182.062C251.65 193.437 246.457 203.689 239.579 212.818C232.701 221.806 224.138 229.109 213.892 234.727C203.785 240.204 192.135 242.943 178.94 242.943C171.08 242.943 164.272 241.187 158.517 237.676C152.902 234.025 148.2 229.39 144.41 223.772C140.761 218.014 138.024 211.695 136.199 204.813C134.515 197.791 133.672 190.839 133.672 183.958ZM151.569 188.592C151.569 192.384 152.201 196.387 153.464 200.6C154.727 204.813 156.482 208.675 158.728 212.186C160.974 215.697 163.781 218.646 167.15 221.034C170.659 223.421 174.589 224.615 178.94 224.615C188.345 224.615 196.907 222.508 204.627 218.295C212.348 213.942 219.015 208.394 224.63 201.653C230.244 194.771 234.596 187.117 237.684 178.691C240.772 170.265 242.316 161.908 242.316 153.622C242.316 148.847 242.175 143.932 241.895 138.876C241.614 133.82 240.702 129.256 239.158 125.183C237.614 120.97 235.157 117.599 231.788 115.072C228.56 112.403 223.858 111.069 217.682 111.069C215.716 111.069 213.049 111.139 209.681 111.28C206.452 111.42 203.224 111.841 199.995 112.544C196.767 113.105 193.889 114.018 191.363 115.282C188.977 116.546 187.784 118.302 187.784 120.549C187.784 120.83 187.994 121.462 188.415 122.445C188.977 123.287 189.538 124.2 190.1 125.183C190.661 126.166 191.152 127.149 191.573 128.132C191.995 128.975 192.205 129.537 192.205 129.818C192.205 130.099 191.644 130.871 190.521 132.135C189.398 133.259 188.485 133.961 187.784 134.242C180.765 136.067 174.87 138.385 170.097 141.193C165.465 143.862 161.746 147.373 158.938 151.726C156.271 156.08 154.376 161.276 153.253 167.315C152.13 173.354 151.569 180.447 151.569 188.592Z" stroke="black" stroke-opacity="0.2" stroke-width="4" mask="url(#path-1-outside-1_161_20777)"/>
<path d="M278.109 98.008C280.355 99.6933 282.18 101.8 283.584 104.328C284.987 106.715 286.11 109.173 286.952 111.701C287.093 117.038 287.163 123.428 287.163 130.871C287.163 138.314 287.444 146.039 288.005 154.044C288.567 162.049 289.619 170.054 291.163 178.059C292.707 185.924 295.094 193.016 298.322 199.336C301.691 205.656 306.112 210.782 311.587 214.714C317.201 218.506 324.22 220.402 332.642 220.402C340.362 220.402 346.959 218.576 352.433 214.925C358.048 211.273 362.68 206.639 366.329 201.021C370.119 195.403 372.857 189.154 374.541 182.272C376.366 175.25 377.278 168.439 377.278 161.838C377.278 149.058 376.646 136.067 375.383 122.866C374.12 109.524 371.804 96.6738 368.435 84.315C369.418 81.7871 370.681 80.3827 372.225 80.1018C373.769 79.6805 375.453 79.4698 377.278 79.4698C380.928 79.4698 383.805 80.9445 385.911 83.8937C388.016 86.843 389.56 90.6349 390.543 95.2694C391.666 99.7635 392.297 104.749 392.438 110.226C392.718 115.563 392.718 120.689 392.438 125.605C392.297 130.38 392.017 134.663 391.595 138.455C391.315 142.106 391.174 144.424 391.174 145.407C391.174 152.71 390.964 160.153 390.543 167.737C390.262 175.18 389.42 182.342 388.016 189.224C386.753 196.106 384.788 202.566 382.121 208.605C379.594 214.503 376.155 219.7 371.804 224.194C367.452 228.547 362.048 231.988 355.591 234.516C349.135 237.044 341.414 238.308 332.431 238.308C321.061 238.308 311.727 236.131 304.428 231.778C297.129 227.424 291.233 221.666 286.742 214.503C282.39 207.2 279.092 198.914 276.846 189.645C274.74 180.376 273.196 170.897 272.214 161.206C271.372 151.516 270.74 141.966 270.319 132.556C270.038 123.147 269.617 114.65 269.056 107.066L278.109 98.008Z" stroke="black" stroke-opacity="0.2" stroke-width="4" mask="url(#path-1-outside-1_161_20777)"/>
<path d="M399.386 93.7948C399.386 92.6712 399.456 90.8455 399.596 88.3176C399.596 85.6492 399.596 82.9106 399.596 80.1018C399.596 77.1526 399.666 74.414 399.807 71.8861C399.807 69.2177 399.807 67.392 399.807 66.4089C401.351 63.4596 403.737 61.353 406.966 60.0891C410.334 58.6846 413.914 57.7718 417.704 57.3505C421.634 56.7887 425.424 56.578 429.073 56.7185C432.863 56.8589 435.951 56.9291 438.337 56.9291C441.425 56.9291 445.005 57.0696 449.075 57.3505C453.286 57.6313 457.427 58.1931 461.498 59.0358C465.709 59.738 469.85 60.8615 473.92 62.4063C477.991 63.8107 481.57 65.7067 484.658 68.0942C487.887 70.3412 490.413 73.15 492.238 76.5206C494.203 79.7507 495.186 83.6128 495.186 88.1069C495.186 93.4437 493.922 98.2889 491.396 102.643C488.869 106.856 485.711 110.858 481.921 114.65C478.272 118.302 474.201 121.742 469.709 124.973C465.358 128.203 461.287 131.363 457.497 134.452C453.848 137.542 450.76 140.702 448.233 143.932C445.707 147.162 444.443 150.673 444.443 154.465C444.443 154.746 444.513 155.167 444.654 155.729C444.935 156.15 445.075 156.431 445.075 156.572C461.638 161.487 477.71 167.456 493.291 174.478C509.012 181.5 524.452 189.084 539.612 197.229C540.033 197.51 540.454 198.072 540.875 198.914C541.436 199.617 541.928 200.53 542.349 201.653C542.77 202.636 543.191 203.549 543.612 204.392C544.033 205.234 544.244 205.936 544.244 206.498C544.244 207.762 543.893 208.745 543.191 209.448C542.489 210.009 541.647 210.501 540.664 210.922C539.682 211.203 538.699 211.343 537.717 211.343C536.734 211.343 535.892 211.343 535.19 211.343C527.61 211.343 520.031 209.728 512.451 206.498C505.011 203.128 497.502 199.406 489.922 195.333C482.342 191.26 474.622 187.539 466.762 184.168C459.041 180.798 450.97 179.112 442.548 179.112H435.811C438.057 184.309 440.022 188.943 441.706 193.016C443.531 197.089 445.005 201.021 446.128 204.813C447.391 208.605 448.303 212.467 448.865 216.399C449.567 220.191 449.918 224.334 449.918 228.828C449.918 229.811 449.918 231.005 449.918 232.41C449.918 233.673 449.847 235.008 449.707 236.412C449.567 237.816 449.146 239.08 448.444 240.204C447.742 241.327 446.619 242.1 445.075 242.521C439.32 239.151 434.126 233.954 429.494 226.932C425.003 219.77 421.072 211.624 417.704 202.496C414.335 193.367 411.457 183.677 409.071 173.425C406.825 163.172 404.93 153.131 403.386 143.3C401.983 133.329 400.93 124.06 400.228 115.493C399.666 106.786 399.386 99.5528 399.386 93.7948ZM417.493 107.066C417.493 108.892 417.353 111.28 417.072 114.229C416.932 117.038 416.932 119.987 417.072 123.077C417.212 126.026 417.633 128.905 418.335 131.714C419.177 134.382 420.511 136.699 422.336 138.665C422.616 138.806 422.897 138.876 423.178 138.876C423.318 139.017 423.669 139.087 424.231 139.087C426.757 139.087 429.775 138.314 433.284 136.77C436.934 135.225 440.724 133.188 444.654 130.66C448.584 128.132 452.444 125.253 456.234 122.023C460.164 118.653 463.673 115.212 466.762 111.701C469.85 108.19 472.306 104.679 474.131 101.168C476.096 97.5164 477.078 94.2161 477.078 91.2668C477.078 88.458 476.026 86.0705 473.92 84.1044C471.815 81.9978 469.288 80.3125 466.34 79.0485C463.393 77.7846 460.305 76.8717 457.076 76.3099C453.988 75.7482 451.462 75.4673 449.497 75.4673C447.11 75.4673 444.303 75.4673 441.075 75.4673C437.846 75.3268 434.618 75.5375 431.389 76.0993C428.301 76.5206 425.494 77.3632 422.967 78.6272C420.441 79.8912 418.686 81.7871 417.704 84.315C417.704 85.1577 417.704 86.6323 417.704 88.7389C417.704 90.8455 417.704 93.1628 417.704 95.6907C417.704 98.0782 417.633 100.325 417.493 102.432C417.493 104.538 417.493 106.083 417.493 107.066Z" stroke="black" stroke-opacity="0.2" stroke-width="4" mask="url(#path-1-outside-1_161_20777)"/>
<path d="M584.459 233.463C585.161 230.092 586.915 227.354 589.722 225.247C592.67 223 595.969 220.964 599.618 219.138C603.408 217.312 607.338 215.627 611.409 214.082C615.48 212.397 619.199 210.641 622.568 208.816C626.077 206.99 628.955 204.883 631.201 202.496C633.447 199.968 634.569 196.948 634.569 193.437C634.569 188.943 633.376 185.222 630.99 182.272C628.744 179.323 625.656 176.795 621.726 174.688C617.936 172.582 613.585 170.826 608.672 169.422C603.759 168.018 598.706 166.613 593.512 165.209C588.459 163.664 583.476 162.049 578.563 160.364C573.651 158.538 569.229 156.291 565.299 153.622C561.509 150.954 558.421 147.724 556.035 143.932C553.789 140.14 552.666 135.435 552.666 129.818C552.666 125.183 553.578 120.83 555.403 116.757C557.368 112.544 559.895 108.611 562.983 104.96C566.211 101.168 569.861 97.7271 573.931 94.6374C578.142 91.5477 582.494 88.9496 586.985 86.843C591.617 84.7364 596.25 83.1213 600.882 81.9978C605.514 80.7338 609.795 80.1018 613.725 80.1018H616.041C617.304 80.5231 618.989 81.2253 621.094 82.2084C623.2 83.1915 625.235 84.1746 627.2 85.1577C629.165 86.0003 630.85 86.843 632.253 87.6856C633.657 88.3878 634.359 88.8091 634.359 88.9496V93.7948C631.692 94.0757 628.253 94.6374 624.042 95.48C619.831 96.1823 615.409 97.1653 610.777 98.4293C606.145 99.6933 601.443 101.308 596.671 103.275C591.898 105.1 587.617 107.277 583.827 109.805C580.037 112.333 576.949 115.282 574.563 118.653C572.177 121.883 570.984 125.605 570.984 129.818C570.984 135.857 573.089 140.632 577.3 144.143C581.511 147.513 586.775 150.322 593.091 152.569C599.408 154.816 606.286 156.853 613.725 158.678C621.305 160.364 628.253 162.47 634.569 164.998C640.886 167.386 646.15 170.616 650.361 174.688C654.572 178.621 656.677 183.958 656.677 190.699C656.677 194.35 655.554 198.212 653.308 202.285C651.203 206.217 648.325 210.15 644.676 214.082C641.167 217.874 637.166 221.525 632.675 225.036C628.183 228.547 623.551 231.637 618.778 234.305C614.146 236.833 609.584 238.94 605.093 240.625C600.601 242.17 596.6 242.943 593.091 242.943C591.968 242.943 590.775 242.802 589.512 242.521C588.249 242.24 587.126 241.819 586.143 241.257C585.301 240.555 584.599 239.572 584.038 238.308C583.617 237.044 583.757 235.429 584.459 233.463Z" stroke="black" stroke-opacity="0.2" stroke-width="4" mask="url(#path-1-outside-1_161_20777)"/>
</svg>
