<svg width="268" height="200" viewBox="0 0 268 200" fill="none" xmlns="http://www.w3.org/2000/svg">
<rect x="0.000488281" width="268" height="200" rx="38" fill="black" fill-opacity="0.1"/>
<path d="M154 76H114C112.94 76 111.922 76.4214 111.172 77.1716C110.422 77.9217 110 78.9391 110 80V120C110 121.061 110.422 122.078 111.172 122.828C111.922 123.579 112.94 124 114 124H154C155.061 124 156.079 123.579 156.829 122.828C157.579 122.078 158 121.061 158 120V80C158 78.9391 157.579 77.9217 156.829 77.1716C156.079 76.4214 155.061 76 154 76ZM114 80H154V99.345L147.828 93.17C147.078 92.4204 146.061 91.9994 145 91.9994C143.94 91.9994 142.923 92.4204 142.173 93.17L115.343 120H114V80ZM122 92C122 91.2089 122.235 90.4355 122.675 89.7777C123.114 89.1199 123.739 88.6072 124.47 88.3045C125.201 88.0017 126.005 87.9225 126.781 88.0769C127.557 88.2312 128.27 88.6122 128.829 89.1716C129.388 89.731 129.769 90.4437 129.924 91.2196C130.078 91.9956 129.999 92.7998 129.696 93.5307C129.393 94.2616 128.881 94.8864 128.223 95.3259C127.565 95.7654 126.792 96 126 96C124.94 96 123.922 95.5786 123.172 94.8284C122.422 94.0783 122 93.0609 122 92Z" fill="black" fill-opacity="0.4"/>
</svg>
