<svg width="20" height="20" viewBox="0 0 20 20" fill="none" xmlns="http://www.w3.org/2000/svg">
<path d="M14.4999 0.25H5.49994C4.10801 0.251489 2.77352 0.805091 1.78927 1.78933C0.80503 2.77358 0.251428 4.10807 0.249939 5.5V14.5C0.251428 15.8919 0.80503 17.2264 1.78927 18.2107C2.77352 19.1949 4.10801 19.7485 5.49994 19.75H14.4999C15.8919 19.7485 17.2264 19.1949 18.2106 18.2107C19.1948 17.2264 19.7485 15.8919 19.7499 14.5V5.5C19.7485 4.10807 19.1948 2.77358 18.2106 1.78933C17.2264 0.805091 15.8919 0.251489 14.4999 0.25ZM9.99994 14.5C9.10992 14.5 8.23989 14.2361 7.49987 13.7416C6.75985 13.2471 6.18308 12.5443 5.84248 11.7221C5.50189 10.8998 5.41277 9.99501 5.58641 9.12209C5.76004 8.24918 6.18862 7.44736 6.81796 6.81802C7.44729 6.18868 8.24912 5.7601 9.12203 5.58647C9.99495 5.41283 10.8997 5.50195 11.722 5.84254C12.5443 6.18314 13.2471 6.75991 13.7416 7.49993C14.236 8.23995 14.4999 9.10998 14.4999 10C14.4987 11.1931 14.0242 12.337 13.1805 13.1806C12.3369 14.0243 11.193 14.4988 9.99994 14.5ZM15.6249 5.5C15.4024 5.5 15.1849 5.43402 14.9999 5.3104C14.8149 5.18679 14.6707 5.01109 14.5856 4.80552C14.5004 4.59995 14.4781 4.37375 14.5216 4.15552C14.565 3.93729 14.6721 3.73684 14.8294 3.5795C14.9868 3.42217 15.1872 3.31502 15.4055 3.27162C15.6237 3.22821 15.8499 3.25049 16.0555 3.33564C16.261 3.42078 16.4367 3.56498 16.5603 3.74998C16.684 3.93499 16.7499 4.1525 16.7499 4.375C16.7499 4.67337 16.6314 4.95952 16.4204 5.1705C16.2095 5.38147 15.9233 5.5 15.6249 5.5ZM12.9999 10C12.9999 10.5933 12.824 11.1734 12.4943 11.6667C12.1647 12.1601 11.6962 12.5446 11.148 12.7716C10.5998 12.9987 9.99661 13.0581 9.41467 12.9424C8.83273 12.8266 8.29818 12.5409 7.87862 12.1213C7.45906 11.7018 7.17334 11.1672 7.05758 10.5853C6.94183 10.0033 7.00124 9.40013 7.2283 8.85195C7.45536 8.30377 7.83988 7.83524 8.33323 7.50559C8.82658 7.17595 9.4066 7 9.99994 7C10.7956 7 11.5586 7.31607 12.1213 7.87868C12.6839 8.44129 12.9999 9.20435 12.9999 10Z" fill="black"/>
</svg>
