<svg width="20" height="21" viewBox="0 0 20 21" fill="none" xmlns="http://www.w3.org/2000/svg">
<path d="M19.7499 6.5V10.25C19.7499 10.4489 19.6709 10.6397 19.5303 10.7803C19.3896 10.921 19.1989 11 18.9999 11C17.4332 11.0036 15.889 10.6269 14.4999 9.90219V13.625C14.4999 15.5147 13.7493 17.3269 12.4131 18.6631C11.0769 19.9993 9.26461 20.75 7.37494 20.75C5.48527 20.75 3.673 19.9993 2.3368 18.6631C1.00061 17.3269 0.249939 15.5147 0.249939 13.625C0.249939 10.1656 2.77275 7.1075 6.11869 6.51125C6.22663 6.49206 6.33746 6.49678 6.44339 6.52505C6.54931 6.55333 6.64774 6.60449 6.73176 6.67492C6.81578 6.74535 6.88333 6.83334 6.92966 6.9327C6.976 7.03206 6.99999 7.14037 6.99994 7.25V11.2522C6.99999 11.3941 6.95975 11.5332 6.88391 11.6532C6.80807 11.7731 6.69974 11.8691 6.5715 11.93C6.26835 12.0738 6.00933 12.2962 5.82145 12.5742C5.63358 12.8522 5.52374 13.1755 5.50339 13.5104C5.48304 13.8453 5.55293 14.1795 5.70576 14.4782C5.85859 14.7769 6.08877 15.0291 6.37228 15.2085C6.6558 15.388 6.98226 15.488 7.31762 15.4983C7.65298 15.5085 7.98495 15.4286 8.2789 15.2668C8.57285 15.1051 8.81801 14.8674 8.98881 14.5786C9.15961 14.2898 9.24979 13.9605 9.24994 13.625V1.25C9.24994 1.05109 9.32896 0.860322 9.46961 0.71967C9.61026 0.579018 9.80103 0.5 9.99994 0.5H13.7499C13.9489 0.5 14.1396 0.579018 14.2803 0.71967C14.4209 0.860322 14.4999 1.05109 14.4999 1.25C14.5012 2.44309 14.9757 3.58697 15.8193 4.43061C16.663 5.27425 17.8068 5.74876 18.9999 5.75C19.1989 5.75 19.3896 5.82902 19.5303 5.96967C19.6709 6.11032 19.7499 6.30109 19.7499 6.5Z" fill="black"/>
</svg>
